<?xml version="1.0" standalone="no"?>
<!DOCTYPE svg PUBLIC "-//W3C//DTD SVG 20010904//EN"
 "http://www.w3.org/TR/2001/REC-SVG-20010904/DTD/svg10.dtd">
<svg version="1.0" xmlns="http://www.w3.org/2000/svg"
 width="1280.000000pt" height="1280.000000pt" viewBox="0 0 1280.000000 1280.000000"
 preserveAspectRatio="xMidYMid meet">
<g transform="translate(0.000000,1280.000000) scale(0.100000,-0.100000)"
fill="#000000" stroke="none">
<path d="M6241 11129 c-558 -28 -1138 -172 -1719 -428 -668 -295 -1293 -802
-1769 -1436 -161 -214 -343 -516 -455 -754 -226 -476 -345 -879 -419 -1411
-21 -149 -24 -203 -24 -550 0 -432 11 -572 70 -902 122 -681 407 -1332 824
-1883 290 -383 654 -749 980 -984 774 -558 1548 -827 2564 -892 468 -30 1090
56 1607 223 516 166 1111 495 1530 846 213 178 542 523 713 745 144 190 340
497 449 707 163 312 326 779 402 1148 73 351 96 585 96 955 0 529 -69 965
-229 1452 -80 246 -217 548 -381 840 -313 557 -771 1066 -1305 1451 -302 218
-690 430 -1020 558 -611 237 -1276 347 -1914 315z m394 -1039 c723 -37 1391
-277 1972 -706 318 -235 570 -499 777 -811 305 -461 479 -840 565 -1230 59
-264 77 -384 92 -613 38 -583 -83 -1206 -341 -1757 -226 -481 -649 -1008
-1046 -1303 -146 -108 -151 -112 -257 -179 -464 -294 -933 -466 -1467 -535
-412 -54 -712 -41 -1215 53 -466 87 -929 293 -1375 611 -249 178 -531 465
-772 785 -313 416 -529 912 -618 1415 -6 36 -16 85 -20 110 -20 97 -50 487
-50 635 0 106 18 313 41 480 52 383 212 851 410 1205 228 407 571 811 904
1066 280 214 470 330 716 438 456 201 897 313 1329 335 80 5 150 9 155 9 6 1
96 -3 200 -8z"/>
<path d="M5213 8921 c-93 -34 -154 -94 -189 -186 -18 -49 -19 -108 -19 -2265
0 -2190 0 -2216 20 -2269 25 -67 95 -143 162 -174 l48 -22 1310 0 1310 0 48
22 c65 31 138 109 162 175 20 52 20 87 20 2273 l0 2220 -33 67 c-39 80 -95
130 -176 158 -54 19 -90 20 -1333 20 -1222 -1 -1280 -2 -1330 -19z m1921 -310
c33 -31 33 -68 -1 -103 l-27 -28 -563 0 -564 0 -24 25 c-42 42 -25 106 35 128
8 3 263 5 567 4 l551 -2 26 -24z m636 -451 c20 -20 20 -33 20 -1690 0 -1660 0
-1670 -20 -1690 -20 -20 -29 -20 -1235 -18 -1068 3 -1217 5 -1225 18 -11 18
-14 3359 -2 3376 4 6 14 14 22 17 8 3 556 6 1218 6 1189 1 1202 1 1222 -19z
m-1122 -3574 c52 -26 68 -42 101 -100 36 -64 38 -123 7 -192 -46 -100 -128
-150 -230 -142 -85 7 -143 47 -183 127 -39 75 -42 126 -12 191 25 57 53 86
104 112 85 44 133 45 213 4z"/>
</g>
</svg>
